<?xml version="1.0" encoding="UTF-8"?>
<svg id="Layer_1" xmlns="http://www.w3.org/2000/svg" xmlns:inkscape="http://www.inkscape.org/namespaces/inkscape" version="1.1" viewBox="0 0 2550 1650">
  <!-- Generator: Adobe Illustrator 30.4.0, SVG Export Plug-In . SVG Version: 2.1.4 Build 226)  -->
  <defs>
    <style>
      .st0 {
        font-size: 20px;
        letter-spacing: .14em;
        opacity: .58;
      }

      .st0, .st1, .st2, .st3, .st4, .st5, .st6, .st7, .st8, .st9, .st10, .st11, .st12, .st13 {
        isolation: isolate;
      }

      .st0, .st1, .st2, .st3, .st5, .st6, .st7, .st8, .st11, .st12 {
        fill: #2a2825;
      }

      .st0, .st5, .st6, .st11, .st12 {
        font-family: CormorantGaramond-Bold, 'Cormorant Garamond';
        font-weight: 700;
      }

      .st1 {
        font-size: 21px;
      }

      .st1, .st3 {
        opacity: .85;
      }

      .st1, .st8 {
        font-family: Lato-Italic, Lato;
        font-style: italic;
      }

      .st2 {
        font-size: 15px;
      }

      .st2, .st3, .st7 {
        font-family: Lato-Regular, Lato;
      }

      .st2, .st8 {
        opacity: .62;
      }

      .st3 {
        letter-spacing: .12em;
      }

      .st3, .st11, .st12 {
        font-size: 24px;
      }

      .st4 {
        opacity: .38;
        stroke-width: 1.4px;
      }

      .st4, .st9, .st10, .st13 {
        fill: none;
        stroke: #2a2825;
      }

      .st14 {
        fill: #e8e5dc;
      }

      .st5 {
        font-size: 44px;
        letter-spacing: .09em;
      }

      .st6 {
        font-size: 56px;
        letter-spacing: .08em;
      }

      .st7 {
        font-size: 16px;
        opacity: .72;
      }

      .st15 {
        fill: #c8c5ba;
        stroke: #7a7870;
        stroke-width: 1.5px;
      }

      .st8 {
        font-size: 17px;
      }

      .st9 {
        opacity: .22;
        stroke-width: .6px;
      }

      .st10 {
        opacity: .42;
        stroke-width: 1.2px;
      }

      .st11 {
        letter-spacing: .05em;
      }

      .st12 {
        letter-spacing: .05em;
      }

      .st13 {
        opacity: .28;
        stroke-width: .8px;
      }
    </style>
  </defs>
  <g id="layer-background" inkscape:groupmode="layer" inkscape:label="Background">
    <rect class="st14" width="2550" height="1650"/>
  </g>
  <g id="layer-header" inkscape:groupmode="layer" inkscape:label="Header">
    <text class="st5" transform="translate(215.78 247.21)"><tspan x="0" y="0">The Structure of Refraction</tspan></text>
    <text class="st1" transform="translate(217.54 281.21)"><tspan x="0" y="0">Four conditions that make the method transposable</tspan></text>
  </g>
  <g id="layer-conditions" inkscape:groupmode="layer" inkscape:label="Conditions">
    <g id="condition-01">
      <text class="st3" transform="translate(374.49 395.21)"><tspan x="0" y="0">ONE</tspan></text>
      <line class="st10" x1="258" y1="417.21" x2="558" y2="417.21"/>
      <text class="st12" transform="translate(346.62 463.21)"><tspan x="0" y="0">REALIZED</tspan></text>
      <text class="st11" transform="translate(344.95 497.21)"><tspan x="0" y="0">PRACTICE</tspan></text>
      <text class="st7" transform="translate(338.93 577.21)"><tspan x="0" y="0">Built, deployed, and</tspan></text>
      <text class="st7" transform="translate(337.83 603.21)"><tspan x="0" y="0">consequential work.</tspan></text>
      <text class="st7" transform="translate(345.3 629.21)"><tspan x="0" y="0">Not hypothesis or</tspan></text>
      <text class="st7" transform="translate(336.52 655.21)"><tspan x="0" y="0">thought experiment.</tspan></text>
      <text class="st7" transform="translate(325.01 681.21)"><tspan x="0" y="0">The practice must leave</tspan></text>
      <text class="st7" transform="translate(334.5 707.21)"><tspan x="0" y="0">material traces in the</tspan></text>
      <text class="st7" transform="translate(386.07 733.21)"><tspan x="0" y="0">world.</tspan></text>
    </g>
    <g id="condition-02">
      <text class="st3" transform="translate(950.58 395.21)"><tspan x="0" y="0">TWO</tspan></text>
      <line class="st10" x1="836" y1="417.21" x2="1136" y2="417.21"/>
      <text class="st12" transform="translate(916.47 463.21)"><tspan x="0" y="0">SUSTAINED</tspan></text>
      <text class="st11" transform="translate(873.75 497.21)"><tspan x="0" y="0">DOCUMENTATION</tspan></text>
      <text class="st7" transform="translate(914.1 577.21)"><tspan x="0" y="0">Field records, media,</tspan></text>
      <text class="st7" transform="translate(895.95 603.21)"><tspan x="0" y="0">and artifacts accumulated</tspan></text>
      <text class="st7" transform="translate(928.33 629.21)"><tspan x="0" y="0">across the life of</tspan></text>
      <text class="st7" transform="translate(942.62 655.21)"><tspan x="0" y="0">the practice.</tspan></text>
      <text class="st7" transform="translate(905.14 681.21)"><tspan x="0" y="0">The archive that makes</tspan></text>
      <text class="st7" transform="translate(911.88 707.21)"><tspan x="0" y="0">retrospective reading</tspan></text>
      <text class="st7" transform="translate(955.65 733.21)"><tspan x="0" y="0">possible.</tspan></text>
    </g>
    <g id="condition-03">
      <text class="st3" transform="translate(1521.8516 395.2109)"><tspan x="0" y="0">THREE</tspan></text>
      <line class="st10" x1="1414" y1="417.21" x2="1714" y2="417.21"/>
      <text class="st12" transform="translate(1498.1449 463.2109)"><tspan x="0" y="0">EXTERNAL</tspan></text>
      <text class="st12" transform="translate(1451.8612 497.2109)"><tspan x="0" y="0">ACCOUNTABILITY</tspan></text>
      <text class="st7" transform="translate(1475.0927 577.2109)"><tspan x="0" y="0">A structure that demands</tspan></text>
      <text class="st7" transform="translate(1485.8765 603.2109)"><tspan x="0" y="0">the work be read from</tspan></text>
      <text class="st7" transform="translate(1499.925 629.2109)"><tspan x="0" y="0">outside its original</tspan></text>
      <text class="st7" transform="translate(1535.3604 655.2109)"><tspan x="0" y="0">framing.</tspan></text>
      <text class="st7" transform="translate(1473.0011 681.2109)"><tspan x="0" y="0">Committee, panel, or peer</tspan></text>
      <text class="st7" transform="translate(1482.1287 707.2109)"><tspan x="0" y="0">structure that catalyzes</tspan></text>
      <text class="st7" transform="translate(1507.7968 733.2109)"><tspan x="0" y="0">critical distance.</tspan></text>
    </g>
    <g id="condition-04">
      <text class="st3" transform="translate(2103.5896 395.2109)"><tspan x="0" y="0">FOUR</tspan></text>
      <line class="st10" x1="1992" y1="417.21" x2="2292" y2="417.21"/>
      <text class="st12" transform="translate(2081.4243 463.2109)"><tspan x="0" y="0">CRITICAL</tspan></text>
      <text class="st12" transform="translate(2067.853 497.2109)"><tspan x="0" y="0">REREADING</tspan></text>
      <text class="st7" transform="translate(2064.4565 577.2109)"><tspan x="0" y="0">Systematic retelling of</tspan></text>
      <text class="st7" transform="translate(2052.3486 603.2109)"><tspan x="0" y="0">the practice from vantage</tspan></text>
      <text class="st7" transform="translate(2063.9409 629.2109)"><tspan x="0" y="0">points its instrumental</tspan></text>
      <text class="st7" transform="translate(2049.4763 655.2109)"><tspan x="0" y="0">contexts never demanded.</tspan></text>
      <text class="st7" transform="translate(2044.8246 681.2109)"><tspan x="0" y="0">The operation that recovers</tspan></text>
      <text class="st7" transform="translate(2054.2329 707.2109)"><tspan x="0" y="0">what the original framing</tspan></text>
      <text class="st7" transform="translate(2100.6162 733.2109)"><tspan x="0" y="0">suppressed.</tspan></text>
    </g>
  </g>
  <g id="layer-connectors" inkscape:groupmode="layer" inkscape:label="Connectors">
    <line class="st4" x1="408" y1="803.21" x2="408" y2="1063.21"/>
    <line class="st4" x1="986" y1="803.21" x2="986" y2="1063.21"/>
    <line class="st4" x1="1564" y1="803.21" x2="1564" y2="1063.21"/>
    <line class="st4" x1="2142" y1="803.21" x2="2142" y2="1063.21"/>
  </g>
  <g id="layer-hero" inkscape:groupmode="layer" inkscape:label="Hero">
    <rect class="st15" x="306.57" y="1063.21" width="1936.87" height="252" rx="10" ry="10"/>
    <text class="st6" transform="translate(1075.0541 1175.2109)"><tspan x="0" y="0">REFRACTION</tspan></text>
    <text class="st8" transform="translate(1061.223 1240.2109)"><tspan x="0" y="0">The method that emerges when the four conditions co-occur.</tspan></text>
    <text class="st8" transform="translate(983.335 1270.2109)"><tspan x="0" y="0">Knowledge produced in the gap between instrumental framing and critical retelling.</tspan></text>
  </g>
  <g id="layer-transposition" inkscape:groupmode="layer" inkscape:label="Transposition">
    <line class="st13" x1="760" y1="1410.37" x2="1790" y2="1410.37"/>
    <text class="st0" transform="translate(1097.2217 1450.3715)"><tspan x="0" y="0">THE STRUCTURE TRANSPOSES</tspan></text>
    <g id="contexts">
      <text class="st2" transform="translate(341.768 1360.3715)"><tspan x="0" y="0">Doctoral research in</tspan></text>
      <text class="st2" transform="translate(324.0197 1388.3715)"><tspan x="0" y="0">practice-based disciplines</tspan></text>
      <text class="st2" transform="translate(1191.0529 1360.3715)"><tspan x="0" y="0">Peer-reviewed studio and</tspan></text>
      <text class="st2" transform="translate(1193.8842 1388.3715)"><tspan x="0" y="0">design research contexts</tspan></text>
      <text class="st2" transform="translate(2058.3462 1360.3715)"><tspan x="0" y="0">Institutional practice with</tspan></text>
      <text class="st2" transform="translate(2054.4082 1388.3715)"><tspan x="0" y="0">documented case histories</tspan></text>
      <line class="st9" x1="298" y1="1410.37" x2="518" y2="1410.37"/>
      <line class="st9" x1="2022" y1="1410.37" x2="2262" y2="1410.37"/>
    </g>
  </g>
</svg>