<?xml version="1.0" encoding="UTF-8"?>
<svg id="Layer_1" xmlns="http://www.w3.org/2000/svg" xmlns:inkscape="http://www.inkscape.org/namespaces/inkscape" version="1.1" viewBox="0 0 2550 3300">
  <!-- Generator: Adobe Illustrator 30.4.0, SVG Export Plug-In . SVG Version: 2.1.4 Build 226)  -->
  <defs>
    <style>
      .st0 {
        opacity: .6;
      }

      .st0, .st1 {
        font-size: 18px;
      }

      .st0, .st1, .st2, .st3, .st4, .st5, .st6, .st7, .st8, .st9, .st10, .st11, .st12, .st13, .st14, .st15 {
        fill: #2a2825;
      }

      .st0, .st1, .st2, .st3, .st4, .st5, .st6, .st7, .st9, .st10, .st13, .st14 {
        isolation: isolate;
      }

      .st0, .st1, .st3, .st4, .st9, .st13 {
        font-family: Lato-Regular, Lato;
      }

      .st1 {
        opacity: .5;
      }

      .st2 {
        letter-spacing: .06em;
      }

      .st2, .st5, .st6, .st7, .st10, .st14 {
        font-family: CormorantGaramond-Bold, 'Cormorant Garamond';
        font-weight: 700;
      }

      .st2, .st6 {
        font-size: 21px;
        opacity: .65;
      }

      .st3 {
        opacity: .45;
      }

      .st3, .st4 {
        font-size: 15px;
      }

      .st4 {
        opacity: .42;
      }

      .st5 {
        font-size: 24px;
      }

      .st6 {
        letter-spacing: .06em;
      }

      .st7 {
        font-size: 26px;
      }

      .st16 {
        stroke-dasharray: 10 8;
        stroke-opacity: .32;
        stroke-width: .8px;
      }

      .st16, .st8, .st11, .st15, .st17 {
        stroke: #2a2825;
      }

      .st16, .st17 {
        fill: none;
      }

      .st18 {
        fill: #e8e5dc;
      }

      .st8 {
        fill-opacity: .11;
        stroke-opacity: .35;
      }

      .st8, .st15 {
        stroke-width: 2px;
      }

      .st9 {
        font-size: 16px;
        opacity: .3;
      }

      .st10 {
        font-size: 66px;
        letter-spacing: .06em;
      }

      .st11 {
        fill-opacity: .06;
        stroke-opacity: .22;
      }

      .st11, .st17 {
        stroke-width: 1.5px;
      }

      .st12 {
        fill-opacity: .7;
      }

      .st13 {
        font-size: 22px;
        opacity: .85;
      }

      .st14 {
        font-size: 38px;
        letter-spacing: .08em;
      }

      .st15 {
        fill-opacity: .03;
        stroke-dasharray: 14 8;
        stroke-opacity: .28;
      }

      .st17 {
        stroke-opacity: .7;
      }
    </style>
  </defs>
  <g id="layer-background" inkscape:groupmode="layer" inkscape:label="Background">
    <rect class="st18" width="2550" height="3300"/>
  </g>
  <g id="layer-header" inkscape:groupmode="layer" inkscape:label="Header">
    <text class="st10" transform="translate(212.81 260.59)"><tspan x="0" y="0">Core · Collateral · Scaffolding</tspan></text>
    <text class="st13" transform="translate(216.04 320.59)"><tspan x="0" y="0">The architecture of the dissertation&apos;s intellectual contributions</tspan></text>
  </g>
  <g id="layer-rings" inkscape:groupmode="layer" inkscape:label="Rings">
    <circle class="st15" cx="1275" cy="1730" r="850"/>
    <circle class="st11" cx="1275" cy="1730" r="560"/>
    <circle class="st8" cx="1275" cy="1730" r="280"/>
  </g>
  <g id="layer-framework-lines" inkscape:groupmode="layer" inkscape:label="Framework Lines">
    <line class="st17" x1="1275" y1="1450" x2="1275" y2="1170"/>
    <circle class="st12" cx="1275" cy="1450" r="4"/>
    <circle class="st12" cx="1275" cy="1170" r="4"/>
    <line class="st17" x1="1517.5" y1="1590" x2="1760" y2="1450"/>
    <circle class="st12" cx="1517.5" cy="1590" r="4"/>
    <circle class="st12" cx="1760" cy="1450" r="4"/>
    <line class="st17" x1="1517.5" y1="1870" x2="1760" y2="2010"/>
    <circle class="st12" cx="1517.5" cy="1870" r="4"/>
    <circle class="st12" cx="1760" cy="2010" r="4"/>
    <line class="st17" x1="1275" y1="2010" x2="1275" y2="2290"/>
    <circle class="st12" cx="1275" cy="2010" r="4"/>
    <circle class="st12" cx="1275" cy="2290" r="4"/>
    <line class="st17" x1="1032.5" y1="1870" x2="790" y2="2010"/>
    <circle class="st12" cx="1032.5" cy="1870" r="4"/>
    <circle class="st12" cx="790" cy="2010" r="4"/>
    <line class="st17" x1="1032.5" y1="1590" x2="790" y2="1450"/>
    <circle class="st12" cx="1032.5" cy="1590" r="4"/>
    <circle class="st12" cx="790" cy="1450" r="4"/>
  </g>
  <g id="layer-spokes" inkscape:groupmode="layer" inkscape:label="Dashed Spokes">
    <line class="st16" x1="1485" y1="1366.3" x2="1800" y2="820.7"/>
    <line class="st16" x1="1695" y1="1730" x2="2325" y2="1730"/>
    <line class="st16" x1="1485" y1="2093.7" x2="1800" y2="2639.3"/>
    <line class="st16" x1="1065" y1="2093.7" x2="750" y2="2639.3"/>
    <line class="st16" x1="855" y1="1730" x2="225" y2="1730"/>
    <line class="st16" x1="1065" y1="1366.3" x2="750" y2="820.7"/>
  </g>
  <g id="layer-core-labels" inkscape:groupmode="layer" inkscape:label="Core Labels">
    <text class="st14" transform="translate(1217.6775 1698)"><tspan x="0" y="0">CORE</tspan></text>
    <text class="st7" transform="translate(1111.8523 1740)"><tspan x="0" y="0">ADAPTIVE EPISTEMOLOGY</tspan></text>
    <text class="st3" transform="translate(1243.5228 1762)"><tspan x="0" y="0">The claim</tspan></text>
    <text class="st7" transform="translate(1174.3944 1800)"><tspan x="0" y="0">THE CULTIVANT</tspan></text>
    <text class="st3" transform="translate(1206.8146 1822)"><tspan x="0" y="0">Original contribution</tspan></text>
    <text class="st7" transform="translate(1114.751 1860)"><tspan x="0" y="0">REFRACTION AS METHOD</tspan></text>
    <text class="st3" transform="translate(1201.0284 1882)"><tspan x="0" y="0">Doctoral methodology</tspan></text>
  </g>
  <g id="layer-framework-labels" inkscape:groupmode="layer" inkscape:label="Framework Labels">
    <text class="st5" transform="translate(1142.2698 1118)"><tspan x="0" y="0">TECHNOGEOGRAPHIES</tspan></text>
    <text class="st4" transform="translate(1231.5078 1142)"><tspan x="0" y="0">OF SENSING</tspan></text>
    <text class="st5" transform="translate(1677.7335 1398)"><tspan x="0" y="0">COUPLED ECOLOGIES</tspan></text>
    <text class="st4" transform="translate(1723.2494 1422)"><tspan x="0" y="0">Territory as assemblage</tspan></text>
    <text class="st5" transform="translate(1739.161 2058)"><tspan x="0" y="0">REFLEXIVE</tspan></text>
    <text class="st5" transform="translate(1718.2209 2086)"><tspan x="0" y="0">STEWARDSHIP</tspan></text>
    <text class="st4" transform="translate(1692.8373 2110)"><tspan x="0" y="0">Provisional, accountable practice</tspan></text>
    <text class="st5" transform="translate(1121.1018 2338)"><tspan x="0" y="0">GENERATIONAL ROBOTICS</tspan></text>
    <text class="st4" transform="translate(1141.79 2362)"><tspan x="0" y="0">Knowledge distributed across timescales</tspan></text>
    <text class="st5" transform="translate(691.3927 2058)"><tspan x="0" y="0">WETWARE</tspan></text>
    <text class="st4" transform="translate(646.4826 2082)"><tspan x="0" y="0">Biology + technology entangled</tspan></text>
    <text class="st5" transform="translate(693.3966 1398)"><tspan x="0" y="0">MULTIPLE</tspan></text>
    <text class="st5" transform="translate(660.3613 1426)"><tspan x="0" y="0">INTELLIGENCES</tspan></text>
    <text class="st4" transform="translate(660.1737 1450)"><tspan x="0" y="0">Human, machine, biological</tspan></text>
  </g>
  <g id="layer-scaffolding-theory" inkscape:groupmode="layer" inkscape:label="Scaffolding ‚Äî Theoretical">
    <text class="st1" transform="translate(1198.8154 840)"><tspan x="0" y="0">Gabrys · Program Earth</tspan></text>
    <text class="st1" transform="translate(1473.4297 730)"><tspan x="0" y="0">Bratton · Planetary Computation</tspan></text>
    <text class="st1" transform="translate(881.81 735)"><tspan x="0" y="0">Parks · Signal Territories</tspan></text>
    <text class="st1" transform="translate(1946.0048 1070)"><tspan x="0" y="0">Haraway · Staying with the Trouble</tspan></text>
    <text class="st1" transform="translate(1999.2441 1290)"><tspan x="0" y="0">Bennett · Vibrant Matter</tspan></text>
    <text class="st1" transform="translate(1952.8871 1510)"><tspan x="0" y="0">Pickering · Mangle of Practice</tspan></text>
    <text class="st1" transform="translate(2081.0234 1730)"><tspan x="0" y="0">Schön · Reflective Practitioner</tspan></text>
    <text class="st1" transform="translate(2027.7155 2400)"><tspan x="0" y="0">Gunderson · Panarchy</tspan></text>
    <text class="st1" transform="translate(1615.2657 2680)"><tspan x="0" y="0">Egerstedt · Robot Ecology</tspan></text>
    <text class="st1" transform="translate(1193.2659 2650)"><tspan x="0" y="0">Simondon · Individuation</tspan></text>
    <text class="st1" transform="translate(771.7156 2680)"><tspan x="0" y="0">Raxworthy · Overgrown</tspan></text>
    <text class="st1" transform="translate(351.3031 2400)"><tspan x="0" y="0">Barad · Agential Realism</tspan></text>
    <text class="st1" transform="translate(314.804 2080)"><tspan x="0" y="0">Dewey · Theory of Inquiry</tspan></text>
    <text class="st1" transform="translate(374.1095 1510)"><tspan x="0" y="0">Tsing · Arts of Living</tspan></text>
    <text class="st1" transform="translate(340.1019 1290)"><tspan x="0" y="0">Ingold · Wayfaring</tspan></text>
    <text class="st1" transform="translate(270.903 1730)"><tspan x="0" y="0">Wiener · Cybernetics</tspan></text>
    <text class="st1" transform="translate(345.9231 1080)"><tspan x="0" y="0">Kimmerer · Braiding Sweetgrass</tspan></text>
    <text class="st1" transform="translate(2003.5232 1920)"><tspan x="0" y="0">Latour · Actor-Network</tspan></text>
    <text class="st1" transform="translate(296.7221 1920)"><tspan x="0" y="0">Holling · Adaptive Management</tspan></text>
  </g>
  <g id="layer-scaffolding-projects" inkscape:groupmode="layer" inkscape:label="Scaffolding ‚Äî Projects">
    <text class="st9" transform="translate(1396.7609 800)"><tspan x="0" y="0">Mississippi River Basin Model</tspan></text>
    <text class="st9" transform="translate(952.26 810)"><tspan x="0" y="0">Tangier Island</tspan></text>
    <text class="st9" transform="translate(2062.6243 1180)"><tspan x="0" y="0">Chesapeake Bay</tspan></text>
    <text class="st9" transform="translate(2077.9448 1620)"><tspan x="0" y="0">Responsive Landscapes</tspan></text>
    <text class="st9" transform="translate(2051.3044 2120)"><tspan x="0" y="0">NEOM Internet of Ecologies</tspan></text>
    <text class="st9" transform="translate(2072.7002 2260)"><tspan x="0" y="0">Branding Islands</tspan></text>
    <text class="st9" transform="translate(1535.6323 2590)"><tspan x="0" y="0">Sedimachine</tspan></text>
    <text class="st9" transform="translate(899.3651 2590)"><tspan x="0" y="0">Algorithmic Cultivation</tspan></text>
    <text class="st9" transform="translate(273.2329 2190)"><tspan x="0" y="0">Geomorphology Table</tspan></text>
    <text class="st9" transform="translate(224.245 1830)"><tspan x="0" y="0">Louisiana Coastal Wetlands</tspan></text>
    <text class="st9" transform="translate(272.2123 1420)"><tspan x="0" y="0">Indeterminate Futures</tspan></text>
    <text class="st9" transform="translate(242.6924 1620)"><tspan x="0" y="0">PRS Biannual Reviews</tspan></text>
  </g>
  <g id="layer-scaffolding-discipline" inkscape:groupmode="layer" inkscape:label="Scaffolding ‚Äî Disciplinary">
    <text class="st0" transform="translate(1757.8926 770)"><tspan x="0" y="0">McHarg · Design with Nature</tspan></text>
    <text class="st0" transform="translate(577.24 790)"><tspan x="0" y="0">Allen · Points + Lines</tspan></text>
    <text class="st0" transform="translate(2115.8569 1420)"><tspan x="0" y="0">Waldheim · Landscape Urbanism</tspan></text>
    <text class="st0" transform="translate(201.9644 1170)"><tspan x="0" y="0">Spirn · Granite Garden</tspan></text>
    <text class="st0" transform="translate(2076.533 2170)"><tspan x="0" y="0">Bélanger · Landscape as Infrastructure</tspan></text>
    <text class="st0" transform="translate(206.4122 2290)"><tspan x="0" y="0">Nassauer · Messy Ecosystems</tspan></text>
    <text class="st0" transform="translate(651.79 770)"><tspan x="0" y="0">Corner · Recovering Landscape</tspan></text>
    <text class="st0" transform="translate(1684.2808 2560)"><tspan x="0" y="0">Halprin · RSVP Cycles</tspan></text>
    <text class="st0" transform="translate(684.541 2560)"><tspan x="0" y="0">Lister · Projective Ecologies</tspan></text>
    <text class="st0" transform="translate(1183.6526 2730)"><tspan x="0" y="0">Meyer · Sustaining Beauty</tspan></text>
    <text class="st0" transform="translate(442.3728 2470)"><tspan x="0" y="0">Felson · Designed Experiments</tspan></text>
    <text class="st0" transform="translate(1908.2965 2470)"><tspan x="0" y="0">Pietrusko · Data as Design</tspan></text>
  </g>
  <g id="layer-scaffolding-trajectories" inkscape:groupmode="layer" inkscape:label="Scaffolding ‚Äî Trajectories">
    <text class="st2" transform="translate(1174.4717 755)"><tspan x="0" y="0">INSTITUTIONAL FORM</tspan></text>
    <text class="st2" transform="translate(1860.3884 920)"><tspan x="0" y="0">ETHICS OF IRREVERSIBLE COMMITMENT</tspan></text>
    <text class="st2" transform="translate(2018.7488 1980)"><tspan x="0" y="0">TERRITORY&apos;S INTERIORITY</tspan></text>
    <text class="st6" transform="translate(1095.6182 2770)"><tspan x="0" y="0">POLITICAL ECONOMY OF THE NEO-WILD</tspan></text>
    <text class="st6" transform="translate(231.1289 1990)"><tspan x="0" y="0">PEDAGOGY OF ATTENTIVENESS</tspan></text>
    <text class="st6" transform="translate(306.63 930)"><tspan x="0" y="0">PRACTITIONER&apos;S TRANSFORMATION</tspan></text>
  </g>
</svg>