<?xml version="1.0" encoding="UTF-8"?>
<svg id="Layer_1" xmlns="http://www.w3.org/2000/svg" xmlns:xlink="http://www.w3.org/1999/xlink" xmlns:inkscape="http://www.inkscape.org/namespaces/inkscape" version="1.1" viewBox="0 0 5100 3300">
  <!-- Generator: Adobe Illustrator 30.4.0, SVG Export Plug-In . SVG Version: 2.1.4 Build 226)  -->
  <defs>
    <style>
      .st0, .st1, .st2, .st3, .st4, .st5, .st6, .st7, .st8, .st9, .st10, .st11 {
        fill: none;
      }

      .st12 {
        opacity: .6;
      }

      .st12, .st13, .st14 {
        font-family: Lato-Regular, Lato;
      }

      .st12, .st13, .st14, .st15, .st4, .st7, .st16, .st17, .st18, .st19, .st20, .st21, .st9, .st22, .st23, .st24, .st25, .st26, .st10, .st27, .st28, .st11 {
        isolation: isolate;
      }

      .st12, .st13, .st14, .st15, .st29, .st16, .st17, .st18, .st19, .st20, .st21, .st22, .st23, .st24, .st30, .st25, .st26, .st27, .st28 {
        fill: #2a2825;
      }

      .st12, .st13, .st14, .st19 {
        font-size: 18px;
      }

      .st13, .st16, .st24, .st25 {
        opacity: .7;
      }

      .st14, .st4, .st18, .st28 {
        opacity: .5;
      }

      .st1 {
        stroke-width: .8px;
      }

      .st1, .st2 {
        stroke-opacity: .14;
      }

      .st1, .st2, .st3, .st4, .st5, .st29, .st6, .st7, .st31, .st8, .st9, .st30, .st10, .st11 {
        stroke: #2a2825;
      }

      .st2, .st10, .st11 {
        stroke-width: .7px;
      }

      .st15 {
        letter-spacing: .06em;
        opacity: .75;
      }

      .st15, .st16, .st23 {
        font-size: 26px;
      }

      .st15, .st20, .st21, .st22, .st23, .st24, .st25, .st26 {
        font-family: CormorantGaramond-Bold, 'Cormorant Garamond';
        font-weight: 700;
      }

      .st3 {
        stroke-opacity: .08;
        stroke-width: .6px;
      }

      .st4 {
        stroke-width: 2px;
      }

      .st29 {
        fill-opacity: .03;
        stroke-width: 1.2px;
      }

      .st29, .st8 {
        stroke-opacity: .24;
      }

      .st6 {
        stroke-width: 2.5px;
      }

      .st32, .st31, .st33, .st34 {
        fill: #8a9eac;
      }

      .st32, .st33 {
        stroke: #506878;
      }

      .st35, .st36 {
        stroke: #7a5a48;
      }

      .st35, .st36, .st37 {
        fill: #b89080;
      }

      .st35, .st33 {
        stroke-width: 1.5px;
      }

      .st7 {
        opacity: .4;
      }

      .st38 {
        fill: #e8e5dc;
      }

      .st39 {
        clip-path: url(#clippath-1);
      }

      .st40 {
        clip-path: url(#clippath-2);
      }

      .st16, .st17, .st18, .st19 {
        font-family: Lato-Italic, Lato;
        font-style: italic;
      }

      .st17, .st18 {
        font-size: 17px;
      }

      .st17, .st23 {
        opacity: .55;
      }

      .st19, .st27 {
        opacity: .48;
      }

      .st20 {
        letter-spacing: .08em;
      }

      .st20, .st21 {
        opacity: .65;
      }

      .st20, .st21, .st24, .st25 {
        font-size: 28px;
      }

      .st41 {
        fill: #8a8a84;
        stroke: #5a5a55;
      }

      .st21 {
        letter-spacing: .08em;
      }

      .st9 {
        opacity: .45;
        stroke-dasharray: 4 3;
      }

      .st9, .st30 {
        stroke-width: 1.8px;
      }

      .st22 {
        font-size: 66px;
        letter-spacing: .09em;
      }

      .st23 {
        letter-spacing: .08em;
      }

      .st24 {
        letter-spacing: .15em;
      }

      .st30 {
        fill-opacity: .03;
        stroke-dasharray: 14 8;
        stroke-opacity: .28;
      }

      .st25 {
        letter-spacing: .15em;
      }

      .st26 {
        font-size: 22px;
        letter-spacing: .03em;
      }

      .st10 {
        opacity: .32;
      }

      .st42 {
        clip-path: url(#clippath);
      }

      .st11 {
        opacity: .15;
      }
    </style>
    <clipPath id="clippath">
      <rect class="st0" x="3496" y="1156" width="64" height="128"/>
    </clipPath>
    <clipPath id="clippath-1">
      <rect class="st0" x="3560" y="1156" width="64" height="128"/>
    </clipPath>
    <clipPath id="clippath-2">
      <rect class="st0" x="248.07" y="2571.6" width="14" height="28"/>
    </clipPath>
  </defs>
  <g id="layer-background" inkscape:groupmode="layer" inkscape:label="Background">
    <rect class="st38" width="5100" height="3300"/>
  </g>
  <g id="layer-grid" inkscape:groupmode="layer" inkscape:label="Grid">
    <line class="st11" x1="710" y1="660" x2="4740" y2="660"/>
    <line class="st11" x1="710" y1="1020" x2="4740" y2="1020"/>
    <line class="st11" x1="710" y1="1380" x2="4740" y2="1380"/>
    <line class="st11" x1="710" y1="1740" x2="4740" y2="1740"/>
    <line class="st11" x1="710" y1="2100" x2="4740" y2="2100"/>
    <line class="st11" x1="710" y1="2380" x2="4740" y2="2380"/>
  </g>
  <g id="layer-process-contours" inkscape:groupmode="layer" inkscape:label="Process Contours">
    <ellipse class="st3" cx="1080" cy="820" rx="540" ry="400"/>
    <ellipse class="st1" cx="1080" cy="820" rx="360" ry="280"/>
    <ellipse class="st29" cx="1080" cy="820" rx="200" ry="160"/>
    <ellipse class="st3" cx="1980" cy="1480" rx="680" ry="480"/>
    <ellipse class="st1" cx="1980" cy="1480" rx="480" ry="340"/>
    <ellipse class="st29" cx="1980" cy="1480" rx="300" ry="220"/>
    <ellipse class="st3" cx="2600" cy="1840" rx="800" ry="480"/>
    <ellipse class="st1" cx="2600" cy="1840" rx="580" ry="340"/>
    <ellipse class="st29" cx="2600" cy="1840" rx="380" ry="220"/>
    <ellipse class="st3" cx="3360" cy="2220" rx="880" ry="440"/>
    <ellipse class="st1" cx="3360" cy="2220" rx="640" ry="320"/>
    <ellipse class="st29" cx="3360" cy="2220" rx="420" ry="200"/>
    <ellipse class="st3" cx="4100" cy="2400" rx="760" ry="380"/>
    <ellipse class="st1" cx="4100" cy="2400" rx="540" ry="270"/>
    <ellipse class="st29" cx="4100" cy="2400" rx="340" ry="170"/>
    <ellipse class="st3" cx="4200" cy="2540" rx="700" ry="300"/>
    <ellipse class="st1" cx="4200" cy="2540" rx="500" ry="210"/>
    <ellipse class="st29" cx="4200" cy="2540" rx="320" ry="130"/>
  </g>
  <g id="layer-design-opportunity" inkscape:groupmode="layer" inkscape:label="Design Opportunity Zone">
    <rect class="st30" x="2700" y="520" width="2080" height="1300" rx="20" ry="20"/>
  </g>
  <g id="layer-axes" inkscape:groupmode="layer" inkscape:label="Axes">
    <line class="st4" x1="700" y1="2700" x2="4760" y2="2700"/>
    <polygon class="st28" points="4780 2700 4756 2686 4756 2714 4780 2700"/>
    <line class="st7" x1="880" y1="2692" x2="880" y2="2720"/>
    <line class="st7" x1="1320" y1="2692" x2="1320" y2="2720"/>
    <line class="st7" x1="1760" y1="2692" x2="1760" y2="2720"/>
    <line class="st7" x1="2240" y1="2692" x2="2240" y2="2720"/>
    <line class="st7" x1="2960" y1="2692" x2="2960" y2="2720"/>
    <line class="st7" x1="3760" y1="2692" x2="3760" y2="2720"/>
    <line class="st7" x1="4520" y1="2692" x2="4520" y2="2720"/>
    <line class="st4" x1="700" y1="2700" x2="700" y2="480"/>
    <polygon class="st28" points="700 464 686 490 714 490 700 464"/>
  </g>
  <g id="layer-observation-symbols" inkscape:groupmode="layer" inkscape:label="Observation Symbols">
    <polygon class="st33" points="920 736 944 760 920 784 896 760 920 736"/>
    <polygon class="st33" points="960 876 984 900 960 924 936 900 960 876"/>
    <polygon class="st33" points="1080 1036 1104 1060 1080 1084 1056 1060 1080 1036"/>
    <polygon class="st33" points="1360 1156 1384 1180 1360 1204 1336 1180 1360 1156"/>
    <polygon class="st33" points="1440 1476 1464 1500 1440 1524 1416 1500 1440 1476"/>
    <polygon class="st33" points="2600 956 2624 980 2600 1004 2576 980 2600 956"/>
    <circle class="st33" cx="2200" cy="780" r="24"/>
    <circle class="st33" cx="2500" cy="860" r="24"/>
    <circle class="st33" cx="2360" cy="700" r="24"/>
    <circle class="st33" cx="3040" cy="720" r="24"/>
    <circle class="st33" cx="3760" cy="700" r="24"/>
    <circle class="st33" cx="3920" cy="780" r="24"/>
    <circle class="st33" cx="3200" cy="800" r="24"/>
    <circle class="st33" cx="4100" cy="1220" r="24"/>
  </g>
  <g id="layer-intervention-symbols" inkscape:groupmode="layer" inkscape:label="Intervention Symbols">
    <polygon class="st35" points="1000 2476 1024 2500 1000 2524 976 2500 1000 2476"/>
    <polygon class="st35" points="1320 2556 1344 2580 1320 2604 1296 2580 1320 2556"/>
    <polygon class="st35" points="1500 2116 1524 2140 1500 2164 1476 2140 1500 2116"/>
    <polygon class="st35" points="1160 2196 1184 2220 1160 2244 1136 2220 1160 2196"/>
    <polygon class="st35" points="1700 2300 1724 2324 1700 2348 1676 2324 1700 2300"/>
    <circle class="st35" cx="2960" cy="2020" r="24"/>
    <circle class="st35" cx="3000" cy="1860" r="24"/>
    <circle class="st35" cx="3760" cy="2420" r="24"/>
    <circle class="st35" cx="3900" cy="2300" r="24"/>
    <circle class="st35" cx="3400" cy="2260" r="24"/>
    <circle class="st35" cx="4200" cy="2540" r="24"/>
    <circle class="st35" cx="4400" cy="2600" r="24"/>
  </g>
  <g id="layer-robot-symbol" inkscape:groupmode="layer" inkscape:label="Robot Symbol">
    <line class="st9" x1="3560" y1="860" x2="3560" y2="1660"/>
    <circle class="st27" cx="3560" cy="860" r="8"/>
    <circle class="st27" cx="3560" cy="1660" r="8"/>
    <g class="st42">
      <circle class="st34" cx="3560" cy="1220" r="56"/>
    </g>
    <g class="st39">
      <circle class="st37" cx="3560" cy="1220" r="56"/>
    </g>
    <circle class="st6" cx="3560" cy="1220" r="56"/>
    <line class="st7" x1="3560" y1="1164" x2="3560" y2="1276"/>
  </g>
  <g id="layer-technology-labels" inkscape:groupmode="layer" inkscape:label="Technology Labels">
    <text class="st13" transform="translate(964 768)"><tspan x="0" y="0">Drone / UAV</tspan></text>
    <text class="st13" transform="translate(1004 908)"><tspan x="0" y="0">LIDAR survey</tspan></text>
    <text class="st13" transform="translate(1124 1068)"><tspan x="0" y="0">Photogrammetry</tspan></text>
    <text class="st13" transform="translate(1404 1188)"><tspan x="0" y="0">Field crew</tspan></text>
    <text class="st13" transform="translate(1484 1508)"><tspan x="0" y="0">Soil sampling</tspan></text>
    <text class="st13" transform="translate(2644 988)"><tspan x="0" y="0">GPS / telemetry</tspan></text>
    <text class="st13" transform="translate(2137.8601 744)"><tspan x="0" y="0">Acoustic sensor</tspan></text>
    <text class="st13" transform="translate(2451.4319 824)"><tspan x="0" y="0">Camera trap</tspan></text>
    <text class="st13" transform="translate(2279.9004 664)"><tspan x="0" y="0">Ground sensor array</tspan></text>
    <text class="st13" transform="translate(2976.0776 684)"><tspan x="0" y="0">Eddy covariance</tspan></text>
    <text class="st13" transform="translate(3706.5403 748)"><tspan x="0" y="0">Stream gauge</tspan></text>
    <text class="st13" transform="translate(3856.5818 828)"><tspan x="0" y="0">Weather station</tspan></text>
    <text class="st13" transform="translate(3118.6946 848)"><tspan x="0" y="0">Water quality sensor</tspan></text>
    <text class="st13" transform="translate(4034.7866 1268)"><tspan x="0" y="0">Satellite imagery</tspan></text>
    <text class="st13" transform="translate(1044 2508)"><tspan x="0" y="0">Controlled burn</tspan></text>
    <text class="st13" transform="translate(1364 2588)"><tspan x="0" y="0">Grading / earthwork</tspan></text>
    <text class="st13" transform="translate(1544 2148)"><tspan x="0" y="0">Planting / seeding</tspan></text>
    <text class="st13" transform="translate(1204 2228)"><tspan x="0" y="0">Herbicide</tspan></text>
    <text class="st13" transform="translate(1744 2332)"><tspan x="0" y="0">Dredging</tspan></text>
    <text class="st13" transform="translate(2769.2871 2068)"><tspan x="0" y="0">Sediment diversion</tspan></text>
    <text class="st13" transform="translate(3044 1868)"><tspan x="0" y="0">Irrigation system</tspan></text>
    <text class="st13" transform="translate(3804 2428)"><tspan x="0" y="0">Constructed wetland</tspan></text>
    <text class="st13" transform="translate(3944 2308)"><tspan x="0" y="0">Stormwater infrastructure</tspan></text>
    <text class="st13" transform="translate(3338.4858 2308)"><tspan x="0" y="0">Living shoreline</tspan></text>
    <text class="st13" transform="translate(4117.7046 2588)"><tspan x="0" y="0">Levee / flood control</tspan></text>
    <text class="st13" transform="translate(4444 2608)"><tspan x="0" y="0">Seawall</tspan></text>
  </g>
  <g id="layer-process-labels" inkscape:groupmode="layer" inkscape:label="Process Contour Labels">
    <text class="st17" transform="translate(1034.0494 796)"><tspan x="0" y="0">Storm events</tspan></text>
    <text class="st17" transform="translate(1912.345 1456)"><tspan x="0" y="0">Phenological cycles</tspan></text>
    <text class="st17" transform="translate(2526.9858 1816)"><tspan x="0" y="0">Hydrological regimes</tspan></text>
    <text class="st17" transform="translate(3298.6267 2196)"><tspan x="0" y="0">Species dynamics</tspan></text>
    <text class="st17" transform="translate(4029.71 2376)"><tspan x="0" y="0">Geomorphic change</tspan></text>
    <text class="st17" transform="translate(4111.5796 2524)"><tspan x="0" y="0">Succession / pedogenesis</tspan></text>
  </g>
  <g id="layer-cluster-labels" inkscape:groupmode="layer" inkscape:label="Cluster Labels">
    <text class="st21" transform="translate(840.61 536)"><tspan x="0" y="0">TRANSIENT OBSERVATION</tspan></text>
    <text class="st18" transform="translate(939.07 572)"><tspan x="0" y="0">Mobile, high-resolution, brief</tspan></text>
    <text class="st20" transform="translate(3294.1182 1024)"><tspan x="0" y="0">STATIONARY MONITORING</tspan></text>
    <text class="st18" transform="translate(3360.1855 1060)"><tspan x="0" y="0">Fixed point, persistent, observation only</tspan></text>
    <text class="st20" transform="translate(1048.1604 2036)"><tspan x="0" y="0">EPISODIC INTERVENTION</tspan></text>
    <text class="st18" transform="translate(1115.8765 2072)"><tspan x="0" y="0">Mobile, punctual, modification only</tspan></text>
    <text class="st21" transform="translate(3802.1289 2156)"><tspan x="0" y="0">PERMANENT INFRASTRUCTURE</tspan></text>
    <text class="st18" transform="translate(3899.7222 2192)"><tspan x="0" y="0">Fixed, constructed, passive modification</tspan></text>
    <text class="st15" transform="translate(3363.0264 1720)"><tspan x="0" y="0">RESIDENT INFRASTRUCTURE</tspan></text>
    <text class="st17" transform="translate(3424.1895 1764)"><tspan x="0" y="0">Mobile, persistent, observes + modifies</tspan></text>
    <text class="st17" transform="translate(3392.3735 1800)"><tspan x="0" y="0">Adaptive frequency across ecological timescales</tspan></text>
  </g>
  <g id="layer-robot-label" inkscape:groupmode="layer" inkscape:label="Robot Label">
    <text class="st26" transform="translate(3499.0168 1208)"><tspan x="0" y="0">Generational</tspan></text>
    <text class="st26" transform="translate(3530.1462 1248)"><tspan x="0" y="0">robots</tspan></text>
  </g>
  <g id="layer-zone-labels" inkscape:groupmode="layer" inkscape:label="Zone Labels">
    <text class="st23" transform="translate(3581.4929 596)"><tspan x="0" y="0">DESIGN OPPORTUNITY</tspan></text>
    <text class="st19" transform="translate(3548.2 640)"><tspan x="0" y="0">Long presence, flexible attention, adaptive response</tspan></text>
  </g>
  <g id="layer-axis-labels" inkscape:groupmode="layer" inkscape:label="Axis Labels">
    <text class="st24" transform="translate(2522.4382 2670)"><tspan x="0" y="0">DEPLOYMENT DURATION</tspan></text>
    <text class="st14" transform="translate(855.9747 2780)"><tspan x="0" y="0">Hours</tspan></text>
    <text class="st14" transform="translate(1300.4519 2780)"><tspan x="0" y="0">Days</tspan></text>
    <text class="st14" transform="translate(1733.2161 2780)"><tspan x="0" y="0">Weeks</tspan></text>
    <text class="st14" transform="translate(2209.5754 2780)"><tspan x="0" y="0">Months</tspan></text>
    <text class="st14" transform="translate(2938.9717 2780)"><tspan x="0" y="0">Years</tspan></text>
    <text class="st14" transform="translate(3726.0071 2780)"><tspan x="0" y="0">Decades</tspan></text>
    <text class="st14" transform="translate(4482.0381 2780)"><tspan x="0" y="0">Centuries</tspan></text>
    <text class="st25" transform="translate(758 1824.7402) rotate(-90)"><tspan x="0" y="0">INTERACTION FREQUENCY</tspan></text>
    <text class="st14" transform="translate(549.15 660)"><tspan x="0" y="0">Continuous</tspan></text>
    <text class="st14" transform="translate(599.7524 1020)"><tspan x="0" y="0">Daily</tspan></text>
    <text class="st14" transform="translate(580.6993 1380)"><tspan x="0" y="0">Weekly</tspan></text>
    <text class="st14" transform="translate(573.4185 1740)"><tspan x="0" y="0">Monthly</tspan></text>
    <text class="st14" transform="translate(570.6466 2100)"><tspan x="0" y="0">Seasonal</tspan></text>
    <text class="st14" transform="translate(584.4976 2380)"><tspan x="0" y="0">Annual</tspan></text>
    <text class="st14" transform="translate(574.4448 2620)"><tspan x="0" y="0">Episodic</tspan></text>
  </g>
  <g id="layer-header" inkscape:groupmode="layer" inkscape:label="Header">
    <text class="st22" transform="translate(215.89 264)"><tspan x="0" y="0">TEMPORAL MISMATCH</tspan></text>
    <text class="st16" transform="translate(218.53 332)"><tspan x="0" y="0">Observation and intervention technologies vs. ecological timescales</tspan></text>
  </g>
  <g id="layer-legend" inkscape:groupmode="layer" inkscape:label="Legend">
    <rect class="st10" x="174.28" y="2306.05" width="301.14" height="399.7" rx="12" ry="12"/>
    <polygon class="st41" points="246.07 2344.33 262.07 2360.33 246.07 2376.33 230.07 2360.33 246.07 2344.33"/>
    <text class="st12" transform="translate(286.0658 2368.3282)"><tspan x="0" y="0">Mobile / transient</tspan></text>
    <circle class="st41" cx="246.07" cy="2416.33" r="14"/>
    <text class="st12" transform="translate(286.0658 2424.3282)"><tspan x="0" y="0">Fixed / stationary</tspan></text>
    <rect class="st32" x="231.07" y="2456.14" width="36" height="36" rx="6" ry="6"/>
    <text class="st12" transform="translate(287.0658 2486.1437)"><tspan x="0" y="0">Observation</tspan></text>
    <rect class="st36" x="231.07" y="2512.14" width="36" height="36" rx="6" ry="6"/>
    <text class="st12" transform="translate(287.0658 2542.1437)"><tspan x="0" y="0">Modification</tspan></text>
    <circle class="st31" cx="248.07" cy="2585.6" r="14"/>
    <g class="st40">
      <circle class="st37" cx="248.07" cy="2585.6" r="14"/>
    </g>
    <circle class="st5" cx="248.07" cy="2585.6" r="14"/>
    <text class="st12" transform="translate(284.0658 2593.6027)"><tspan x="0" y="0">Resident</tspan></text>
    <ellipse class="st8" cx="229.07" cy="2643.6" rx="28" ry="18"/>
    <ellipse class="st2" cx="229.07" cy="2643.6" rx="40" ry="26"/>
    <text class="st12" transform="translate(285.713 2651.6027)"><tspan x="0" y="0">Ecological process</tspan></text>
  </g>
</svg>